<svg id="Capa_1" enable-background="new 0 0 512 512" height="512" viewBox="0 0 512 512" width="512" xmlns="http://www.w3.org/2000/svg"><g><path d="m90 392h181v90h-181z" fill="#fdbf00"/><path d="m391 482h-90v-75h30v45h60z" fill="#ff9100"/><path d="m45 91h467v331h-467z" fill="#64e1dc"/><path d="m271 91h241v331h-241z" fill="#00c8c8"/><path d="m135 361c-57.891 0-105-47.109-105-105s47.109-105 105-105 105 47.109 105 105-47.109 105-105 105z" fill="#bbdcff"/><circle cx="135" cy="256" fill="#537983" r="75"/><g fill="#bbdcff"><path d="m135 301c-24.814 0-45-20.186-45-45s20.186-45 45-45 45 20.186 45 45-20.186 45-45 45z"/><path d="m155.288 230.98-28.682-8.789c4.98-16.245 2.578-33.765-6.577-48.076l25.254-16.172c13.931 21.739 17.564 48.37 10.005 73.037z"/><path d="m189.785 308.998c-17.021 0-33.955-5.01-48.208-14.37l16.465-25.078c10.532 6.929 22.705 10.181 35.376 9.331l22.954-1.465 1.904 29.941-22.939 1.465c-1.846.117-3.706.176-5.552.176z"/><path d="m72.729 310.727-27.188-12.686c11.016-23.569 31.758-40.928 56.924-47.637l7.734 28.975c-16.566 4.424-30.233 15.85-37.47 31.348z"/><path d="m132.173 353.808-12.744-19.116c-10.488-15.718-15.674-34.79-14.59-53.672l29.941 1.699c-.718 12.612 2.607 24.829 9.609 35.332l12.744 19.116z"/></g><path d="" fill="none"/><path d="m101.528 246.376c-11.587-12.466-28.447-19.365-44.897-18.34l-1.406-29.971c25.972-1.157 50.64 8.95 68.247 27.861z" fill="#bbdcff"/><path d="m171.299 269.623-12.598-27.217c11.909-5.508 21.68-15.029 27.51-26.821l8.906-18.018 26.895 13.271-8.906 18.032c-8.863 17.916-23.702 32.389-41.807 40.753z" fill="#bbdcff"/><path d="m406 361c-57.891 0-105-47.109-105-105s47.109-105 105-105 106 47.109 106 105-48.109 105-106 105z" fill="#9abadb"/><circle cx="406" cy="256" fill="#3e5959" r="75"/><path d="m426.288 230.98-28.682-8.789c4.98-16.245 2.578-33.765-6.577-48.076l25.254-16.172c13.931 21.739 17.564 48.37 10.005 73.037z" fill="#9abadb"/><path d="m460.785 308.998c-17.021 0-33.955-5.01-48.208-14.37l16.465-25.078c10.532 6.929 22.69 10.181 35.376 9.331l22.954-1.465 1.904 29.941-22.939 1.465c-1.846.117-3.706.176-5.552.176z" fill="#9abadb"/><path d="m343.729 310.727-27.188-12.686c11.016-23.569 31.758-40.928 56.924-47.637l7.734 28.975c-16.566 4.424-30.233 15.85-37.47 31.348z" fill="#9abadb"/><path d="m403.173 353.808-12.744-19.116c-10.488-15.718-15.674-34.79-14.59-53.672l29.941 1.699c-.718 12.612 2.607 24.829 9.609 35.332l12.744 19.116z" fill="#9abadb"/><path d="" fill="none"/><path d="m372.528 246.376c-11.587-12.466-28.447-19.365-44.897-18.34l-1.406-29.971c25.854-1.157 50.625 8.95 68.247 27.861z" fill="#9abadb"/><path d="m442.299 269.623-12.598-27.217c11.909-5.508 21.68-15.029 27.51-26.821l8.906-18.018 26.895 13.271-8.906 18.032c-8.863 17.916-23.702 32.389-41.807 40.753z" fill="#9abadb"/><path d="m240 331h61v30h-61z" fill="#537983"/><path d="m240 151h61v30h-61z" fill="#537983"/><path d="m271 151h30v30h-30z" fill="#3e5959"/><path d="m271 331h30v30h-30z" fill="#3e5959"/><path d="m60 482h-30v-422h-30v-30h60z" fill="#e0f4ff"/><path d="m406 301c-24.814 0-45-20.186-45-45s20.186-45 45-45 45 20.186 45 45-20.186 45-45 45z" fill="#9abadb"/></g></svg>