<svg id="Capa_1" enable-background="new 0 0 512.02 512.02" height="512" viewBox="0 0 512.02 512.02" width="512" xmlns="http://www.w3.org/2000/svg"><g><path d="m504.5 256.01c0-11.58 7.08-15 7.08-15-.91-15.49-3.19-30.61-6.72-45.22-.43-.38-11.58-10.351-14.98-20.42-3.47-10.261 2.59-17.61 2.59-17.61-25.49-61.67-75.29-112.1-138.19-138.19l-.01.021s-3.62 6.25-17.72 2.02c-13.79-4.141-20.05-14.021-20.31-14.441-.1-.1-20.49-5.27-45.24-6.71-.21.42-3.77 7.06-14.99 7.06-11.58 0-15-7.08-15-7.08-15.55.91-30.66 3.181-45.23 6.67.07.36-6.67 10.4-20.31 14.5-14.1 4.23-17.72-2.02-17.72-2.02l-.02-.09c-63.06 26.17-112.43 76.63-138.17 138.27.28.351 5.97 7.59 2.58 17.601-3.47 10.269-14.99 20.429-14.99 20.429l-.06-.08c-3.58 14.71-5.87 29.86-6.76 45.29h.11s7.08 3.42 7.08 15-7.08 15-7.08 15c-.24 0 .96 21.34 6.71 45.21 0 0 11.52 10.16 14.99 20.43 3.47 10.261-2.59 17.61-2.59 17.61h-.03c26.43 63.9 77.1 112.69 138.25 138.14.28-.439 4.15-6.06 17.7-1.989 13.79 4.14 20.05 14.02 20.31 14.439 23.24 5.65 45.23 6.94 45.23 6.73 0 0 3.42-7.08 15-7.08 11.4 0 14.89 6.859 14.99 7.069.23.25 20.05-1.14 39.33-5.35 1.86-.4 4.63-1.05 6.04-1.39-.04.01-.09.02-.14.029 0 0 6.23-10.22 20.32-14.449 14.1-4.23 17.72 2.02 17.72 2.02v.021l.01.02c61.42-25.45 111.79-74.61 138.18-138.22-.28-.351-5.97-7.59-2.58-17.601 3.47-10.27 14.99-20.43 14.99-20.43 3.96-16.34 6.27-33.91 6.71-45.21 0 .001-7.08-3.419-7.08-14.999z" fill="#9cd6f4"/><path d="m511.58 271.01c-.44 11.3-2.75 28.87-6.71 45.21 0 0-11.52 10.16-14.99 20.43-3.39 10.011 2.3 17.25 2.58 17.601-26.39 63.609-76.76 112.77-138.18 138.22l-.01-.02v-.021s-3.62-6.25-17.72-2.02c-14.09 4.229-20.32 14.449-20.32 14.449.05-.01.1-.02.14-.029-1.41.34-4.18.989-6.04 1.39-19.28 4.21-39.1 5.6-39.33 5.35-.1-.21-3.59-7.069-14.99-7.069v-496.981c11.22 0 14.78-6.64 14.99-7.06 24.75 1.439 45.14 6.609 45.24 6.71.26.42 6.52 10.3 20.31 14.439 14.1 4.23 17.72-2.02 17.72-2.02l.01-.021c62.9 26.091 112.7 76.521 138.19 138.19 0 0-6.06 7.35-2.59 17.61 3.4 10.069 14.55 20.04 14.98 20.42 3.53 14.609 5.81 29.729 6.72 45.22 0 0-7.08 3.42-7.08 15s7.08 15.002 7.08 15.002z" fill="#7fa6fb"/><path d="m511.59 271.01c.58-10.03.57-20.05-.01-30h-112.19c-.57-28.98-2.81-57.31-6.69-84.61 30.67 6.69 58.68 15.67 81.9 26.32 2.897 1.162-10.584-4.573 30.27 13.08-3.053-12.652-7.121-25.332-12.4-38.04-23.936-10.32-51.372-22.603-105.12-33.09-7.35-37.62-17.65-71.09-30.71-99.6l-2.37-5.479c-12.26-5.11-24.97-9.271-38.04-12.43l12.94 29.96c1.898 4.722 15.513 32.03 26.44 82.199-27.29-3.88-55.62-6.119-84.6-6.689v-112.191c-9.885-.556-19.51-.59-30 0v112.19c-28.98.57-57.31 2.81-84.61 6.689 6.69-30.67 15.67-58.68 26.32-81.899 1.149-2.887-4.569 10.584 13.07-30.271-13.08 3.16-25.8 7.33-38.05 12.42l-2.37 5.5c-13.05 28.511-23.35 61.98-30.7 99.601-37.62 7.34-71.09 17.649-99.6 30.7l-5.51 2.38c-4.863 11.622-9.201 24.642-12.42 38.05 41.315-17.847 27.273-11.874 30.28-13.08 23.22-10.65 51.23-19.63 81.9-26.31-3.88 27.29-6.12 55.619-6.69 84.6h-112.2c-.58 10.03-.57 20.05.01 30h112.19c.57 28.98 2.81 57.31 6.69 84.61-30.67-6.69-58.68-15.67-81.9-26.32-2.897-1.162 10.584 4.573-30.27-13.08 3.273 13.564 7.581 26.509 12.41 38.05l5.51 2.38c28.51 13.051 61.98 23.351 99.6 30.7 7.35 37.62 17.65 71.09 30.7 99.601l2.37 5.479c12.26 5.11 24.98 9.271 38.05 12.43-17.794-41.198-11.898-27.316-13.07-30.26-10.65-23.22-19.63-51.229-26.32-81.899 27.3 3.88 55.63 6.119 84.61 6.689v112.19c9.885.555 19.51.589 30 0v-112.19c28.98-.57 57.31-2.81 84.61-6.689-6.69 30.67-15.67 58.68-26.32 81.899-1.149 2.887 4.569-10.584-13.07 30.271 13.07-3.16 25.78-7.32 38.03-12.42l2.38-5.5c13.06-28.511 23.36-61.98 30.71-99.601 37.62-7.34 71.09-17.649 99.6-30.71l5.52-2.38c5.122-12.392 9.229-24.791 12.41-38.04l-29.98 12.95c-4.949 1.979-32.065 15.52-82.2 26.439 3.88-27.29 6.12-55.619 6.69-84.6h112.2zm-270.58 98.38c-31.16-.64-61.48-3.3-90.46-7.92-4.62-28.979-7.28-59.3-7.92-90.46h98.38zm0-128.38h-98.38c.64-31.16 3.3-61.48 7.92-90.46 28.98-4.62 59.3-7.28 90.46-7.92zm120.46 120.46c-28.98 4.62-59.3 7.28-90.46 7.92v-98.38h98.38c-.64 31.16-3.3 61.48-7.92 90.46zm-90.46-120.46v-98.38c31.16.64 61.48 3.3 90.46 7.92 4.62 28.979 7.28 59.3 7.92 90.46z" fill="#dfe5f2"/><path d="m511.59 271.01c.58-10.03.57-20.05-.01-30h-112.19c-.57-28.98-2.81-57.31-6.69-84.61 30.67 6.69 58.68 15.67 81.9 26.32 2.897 1.162-10.584-4.573 30.27 13.08-3.053-12.652-7.121-25.332-12.4-38.04-23.936-10.32-51.372-22.603-105.12-33.09-7.35-37.62-17.65-71.09-30.71-99.6l-2.37-5.479c-12.26-5.11-24.97-9.271-38.04-12.43l12.94 29.96c1.898 4.722 15.513 32.03 26.44 82.199-27.29-3.88-55.62-6.119-84.6-6.689v-112.191c-4.97-.279-9.97-.43-15-.43v512c5.03 0 10.03-.15 15-.43v-112.19c28.98-.57 57.31-2.81 84.61-6.689-6.69 30.67-15.67 58.68-26.32 81.899-1.149 2.887 4.569-10.584-13.07 30.271 13.07-3.16 25.78-7.32 38.03-12.42l2.38-5.5c13.06-28.511 23.36-61.98 30.71-99.601 37.62-7.34 71.09-17.649 99.6-30.71l5.52-2.38c5.122-12.392 9.229-24.791 12.41-38.04l-29.98 12.95c-4.949 1.979-32.065 15.52-82.2 26.439 3.88-27.29 6.12-55.619 6.69-84.6h112.2zm-150.12 90.46c-28.98 4.62-59.3 7.28-90.46 7.92v-98.38h98.38c-.64 31.16-3.3 61.48-7.92 90.46zm-90.46-120.46v-98.38c31.16.64 61.48 3.3 90.46 7.92 4.62 28.979 7.28 59.3 7.92 90.46z" fill="#c7cdde"/></g></svg>